<svg width="393" height="500" viewBox="0 0 393 500" fill="none" xmlns="http://www.w3.org/2000/svg">
<path d="M84.057 39.4935L134.035 100.455L207.457 71.7616L164.923 138.132L214.901 199.094L138.636 179.151L96.1016 245.521L91.5009 166.825L15.2354 146.883L88.6576 118.189L84.057 39.4935Z" fill="#6715FF"/>
<path d="M330.029 230.026L324.803 279.834L370.559 300.196L321.573 310.617L316.347 360.426L291.298 317.058L242.313 327.48L275.817 290.255L250.769 246.888L296.524 267.25L330.029 230.026Z" fill="#8708E4"/>
<path d="M141.343 308.816L137.548 345.241L173.974 334.997L176.63 352.451L141.722 355.296L164.298 385.271L147.983 394.188L131.857 360.988L117.249 394.188L100.364 385.271L122.561 355.296L88.0324 352.451L90.6884 334.997L126.734 345.241L122.75 308.816H141.343Z" fill="#E75A84"/>
<path d="M304.006 105.007C317.902 96.8898 326.537 70.5029 326.537 70.5029C326.537 70.5029 319.93 97.4987 327.499 111.701C335.146 126.048 361.631 135.537 361.631 135.537C361.631 135.537 335.033 127.998 320.806 135.194C305.85 142.758 296.598 170.632 296.598 170.632C296.598 170.632 305.314 142.879 297.312 128.501C289.31 114.122 261.131 106.903 261.131 106.903C261.131 106.903 289.534 113.46 304.006 105.007Z" fill="#FECE00"/>
</svg>
